<svg id="aerials_3D" data-name="aerials 3D" xmlns="http://www.w3.org/2000/svg" viewBox="0 0 76 76"><defs><style>.cls-1{fill:#2e2e2e;}.cls-2{fill:none;isolation:isolate;}</style></defs><title>icon-work-video</title><path class="cls-1" d="M69.8,76H6.2A6.21,6.21,0,0,1,0,69.79V6.21A6.21,6.21,0,0,1,6.2,0H69.8A6.21,6.21,0,0,1,76,6.21V69.79A6.21,6.21,0,0,1,69.8,76ZM6.2,2.87A3.35,3.35,0,0,0,2.86,6.21V69.79A3.35,3.35,0,0,0,6.2,73.13H69.8a3.35,3.35,0,0,0,3.34-3.34V6.21A3.35,3.35,0,0,0,69.8,2.87H6.2Z"/><path class="cls-2"/><g id="film"><path class="cls-1" d="M60.88,10.5H15a2.3,2.3,0,0,0-2.29,2.29V63.21A2.3,2.3,0,0,0,15,65.5H60.88a2.3,2.3,0,0,0,2.29-2.29V12.79A2.3,2.3,0,0,0,60.88,10.5ZM54,55.57V47.93h6.88v7.64H54Zm6.88,1.53v6.11H54V57.1h6.88ZM54,46.4V39.53h6.88V46.4H54Zm0-9.93V29.6h6.88v6.88H54Zm0-8.4V20.43h6.88v7.64H54Zm0-9.17V12.79h6.88V18.9H54ZM24.21,36.47V12.79h27.5V36.47H24.21Zm27.5,3.06V63.21H24.21V39.53h27.5ZM15,55.57V47.93h6.88v7.64H15Zm6.88,1.53v6.11H15V57.1h6.88ZM15,46.4V39.53h6.88V46.4H15Zm0-9.93V29.6h6.88v6.88H15Zm0-8.4V20.43h6.88v7.64H15Zm0-9.17V12.79h6.88V18.9H15Z"/></g></svg>